<svg width="148" height="148" viewBox="0 0 148 148" fill="none" xmlns="http://www.w3.org/2000/svg">
<path d="M74 147.353C33.3516 147.353 0.401855 114.513 0.401855 73.9998C0.401855 33.4869 33.3516 0.646973 74 0.646973C114.648 0.646973 147.598 33.4869 147.598 73.9998C147.598 114.513 114.648 147.353 74 147.353ZM74 8.6268C37.9708 8.6268 8.40837 38.0907 8.40837 73.9998C8.40837 109.909 37.9708 139.373 74 139.373C110.029 139.373 139.592 109.909 139.592 73.9998C139.592 38.0907 110.029 8.6268 74 8.6268Z" fill="#78B1EA"/>
<path d="M30.8881 127.096L23.4976 123.72C25.6532 118.503 32.4279 115.741 40.1264 112.364C47.517 108.988 56.7553 104.998 56.7553 100.088V93.3357C53.9838 91.1873 49.6726 86.2766 49.0567 79.2175C46.9011 77.0691 43.5138 73.0793 43.5138 68.1686C43.5138 65.0995 44.7456 62.6441 45.6694 61.1095C45.0535 57.7335 43.8217 50.9813 43.8217 45.7638C43.8217 28.8834 55.5235 17.8345 74 17.8345C79.235 17.8345 85.7018 19.369 89.0892 23.052C97.4036 24.5866 104.178 34.4079 104.178 45.7638C104.178 53.1297 102.947 59.2681 102.023 62.0303C102.947 63.5649 103.87 65.7133 103.87 68.1686C103.87 74 101.099 77.683 98.3274 79.5245C97.7115 86.5835 93.7083 91.1873 91.2448 93.3357V100.088C91.2448 104.385 98.9433 107.147 106.026 109.909C114.34 112.978 122.963 116.047 125.734 123.106L118.036 125.869C116.804 122.186 109.413 119.73 103.255 117.275C93.7083 113.899 82.9303 109.909 82.9303 100.088V89.0388L84.778 87.8112C85.0859 87.8112 90.321 84.1282 90.321 77.0691V74.3069L92.7845 73.3862C93.0925 73.0792 95.556 71.8516 95.556 68.1686C95.556 66.9409 94.6322 65.7133 94.3242 65.4063L92.7845 63.5649L93.4004 61.4164C93.4004 61.4164 95.556 54.6643 95.556 45.4568C95.556 37.7839 91.2448 30.7249 86.6257 30.7249H84.1621L82.9303 28.5765C82.0065 27.0419 78.3112 25.5074 73.3842 25.5074C59.5268 25.5074 51.2123 32.8733 51.2123 45.4568C51.2123 51.2882 53.3679 60.8026 53.3679 60.8026L53.9838 62.951L52.4441 64.4856C52.4441 64.4856 51.2123 66.0202 51.2123 67.5547C51.2123 69.7031 53.9838 72.4654 55.2155 73.6931L56.7553 74.9207V77.0691C56.7553 83.8213 62.6062 87.5042 62.6062 87.5042L64.4538 88.7319V99.7809C64.4538 109.909 53.06 115.127 42.8979 119.424C38.5867 121.879 32.1199 124.948 30.8881 127.096Z" fill="#78B1EA"/>
</svg>
